<svg width="126" height="58" viewBox="0 0 126 58" fill="none" xmlns="http://www.w3.org/2000/svg">
<g clip-path="url(#clip0_9305_5325)">
<g clip-path="url(#clip1_9305_5325)">
<mask id="mask0_9305_5325" style="mask-type:luminance" maskUnits="userSpaceOnUse" x="-1" y="-5" width="127" height="54">
<path d="M125.82 -4.4375H-0.5V48.5015H125.82V-4.4375Z" fill="white"/>
</mask>
<g mask="url(#mask0_9305_5325)">
<path d="M123.113 47.7838C123.113 47.7838 122.248 46.8238 120.813 45.2758C119.781 44.2248 119.182 42.8234 119.137 41.3508V-4.36719H101.837V32.1978C101.624 35.6608 98.237 36.5388 96.373 36.4778C93.69 36.3968 92.129 34.8778 92.129 32.3028V-4.36719H75.278C75.278 -4.36719 68.243 -4.35619 63.4 -4.35619C54.176 -4.35619 45.473 -2.93719 42.527 4.74381L40.79 -2.05619C40.5383 -2.734 40.0854 -3.31864 39.492 -3.73171C38.8986 -4.14478 38.193 -4.36652 37.47 -4.36719H7.353C6.914 -4.36719 6.753 -4.22519 6.974 -3.91719C6.974 -3.91719 7.791 -3.13719 9.279 -1.43419C9.88513 -0.669045 10.3125 0.221952 10.5298 1.17359C10.7471 2.12522 10.7489 3.1134 10.535 4.06581L-0.5 48.2188H15.559L17.867 38.5248H33.367L35.78 48.2188H56.925C65.604 48.2188 72.663 47.3338 76.142 41.9188C78.742 46.8618 84.347 49.1798 94.233 48.3278C97.675 48.0338 101.044 46.4278 102.489 43.8578L103.173 45.9868C103.453 46.6623 103.93 47.2375 104.543 47.6366C105.155 48.0356 105.874 48.24 106.605 48.2228H122.755C123.194 48.2228 123.336 48.0908 123.113 47.7838ZM39.2 5.04881L42.1 6.80881C42 7.28181 41.89 7.91981 41.821 8.36881L38.807 5.56881C38.7422 5.51418 38.7009 5.43672 38.6917 5.35247C38.6824 5.26822 38.706 5.18365 38.7574 5.11629C38.8088 5.04892 38.8842 5.00392 38.9679 4.99061C39.0516 4.97731 39.1372 4.99671 39.207 5.04481M36.242 8.73881L41.682 10.9248C41.682 11.5738 41.71 12.4488 41.782 13.1098L35.948 9.30981C35.8791 9.26652 35.829 9.1988 35.8078 9.12018C35.7867 9.04157 35.796 8.95786 35.8339 8.88582C35.8718 8.81378 35.9356 8.75871 36.0123 8.73164C36.0891 8.70457 36.1733 8.70749 36.248 8.73981M34.048 12.8398L42.053 14.6448C42.2672 15.6172 42.5983 16.56 43.039 17.4528L33.84 13.4458C33.7658 13.4152 33.706 13.3576 33.6727 13.2846C33.6393 13.2116 33.6349 13.1287 33.6602 13.0526C33.6856 12.9764 33.7389 12.9128 33.8094 12.8744C33.8799 12.836 33.9623 12.8258 34.04 12.8458M20.283 28.9458L25.628 7.35581L30.994 28.9458H20.283ZM64.578 36.0888C63.031 37.4968 60.204 38.1818 57.094 37.8888C55.8455 37.7198 54.631 37.3574 53.494 36.8148L47.015 44.8488C46.9619 44.9144 46.8864 44.9582 46.8031 44.9717C46.7197 44.9851 46.6343 44.9674 46.5632 44.9218C46.4922 44.8762 46.4404 44.806 46.4178 44.7247C46.3953 44.6433 46.4035 44.5565 46.441 44.4808L50.881 35.5528C50.892 35.5304 50.895 35.5049 50.8893 35.4806C50.8836 35.4562 50.8697 35.4346 50.8499 35.4194C50.8301 35.4042 50.8056 35.3964 50.7807 35.3972C50.7557 35.3979 50.7318 35.4074 50.713 35.4238L42.833 42.2818C42.7701 42.3361 42.6894 42.3652 42.6063 42.3636C42.5233 42.362 42.4438 42.3297 42.383 42.2731C42.3223 42.2164 42.2846 42.1393 42.2772 42.0566C42.2698 41.9739 42.2933 41.8913 42.343 41.8248L48.451 33.7108C48.4679 33.6926 48.4774 33.6688 48.4777 33.6439C48.478 33.6191 48.4691 33.595 48.4526 33.5764C48.4361 33.5578 48.4133 33.546 48.3886 33.5433C48.3639 33.5406 48.3391 33.5472 48.319 33.5618L39.192 39.1118C39.1225 39.1549 39.0395 39.1705 38.9591 39.1555C38.8787 39.1406 38.8068 39.0961 38.7575 39.0309C38.7082 38.9657 38.685 38.8844 38.6925 38.803C38.7 38.7216 38.7376 38.6459 38.798 38.5908L46.421 31.5158C46.4367 31.5007 46.4466 31.4806 46.4491 31.459C46.4516 31.4373 46.4465 31.4155 46.4347 31.3972C46.4229 31.3789 46.4051 31.3653 46.3844 31.3586C46.3636 31.352 46.3412 31.3528 46.321 31.3608L36.238 35.4108C36.1633 35.4431 36.0791 35.4461 36.0023 35.419C35.9256 35.3919 35.8618 35.3368 35.8239 35.2648C35.786 35.1928 35.7767 35.1091 35.7978 35.0304C35.819 34.9518 35.8691 34.8841 35.938 34.8408L44.817 29.0618C44.8352 29.0496 44.8485 29.0315 44.8547 29.0106C44.861 28.9897 44.8597 28.9672 44.8512 28.9471C44.8427 28.927 44.8274 28.9104 44.808 28.9003C44.7887 28.8903 44.7664 28.8872 44.745 28.8918L34.036 31.3038C33.9583 31.3238 33.8759 31.3136 33.8054 31.2752C33.7349 31.2369 33.6816 31.1732 33.6562 31.0971C33.6309 31.0209 33.6353 30.938 33.6687 30.865C33.702 30.7921 33.7618 30.7344 33.836 30.7038L43.747 26.3748C43.7653 26.3664 43.7802 26.3519 43.789 26.3337C43.7978 26.3156 43.8 26.295 43.7953 26.2754C43.7906 26.2557 43.7792 26.2384 43.7631 26.2262C43.747 26.2141 43.7272 26.2079 43.707 26.2088L32.687 26.9158C32.608 26.9222 32.5296 26.8986 32.4673 26.8497C32.4049 26.8008 32.3633 26.7302 32.3507 26.652C32.3381 26.5738 32.3554 26.4937 32.3992 26.4277C32.443 26.3617 32.51 26.3146 32.587 26.2958L43.181 23.5798C43.2003 23.5743 43.2171 23.5623 43.2286 23.5459C43.24 23.5294 43.2455 23.5095 43.2439 23.4895C43.2424 23.4695 43.234 23.4506 43.2202 23.4361C43.2063 23.4216 43.1879 23.4123 43.168 23.4098L32.179 22.3868C32.1017 22.3792 32.0299 22.3431 31.9777 22.2855C31.9255 22.228 31.8966 22.153 31.8966 22.0753C31.8966 21.9976 31.9255 21.9227 31.9777 21.8651C32.0299 21.8075 32.1017 21.7714 32.179 21.7638L43.2 20.7368C43.2192 20.735 43.2372 20.7265 43.2507 20.7128C43.2643 20.6991 43.2725 20.681 43.2741 20.6618C43.2756 20.6425 43.2704 20.6234 43.2592 20.6077C43.248 20.5919 43.2317 20.5807 43.213 20.5758L32.592 17.8538C32.515 17.835 32.448 17.7879 32.4042 17.7219C32.3604 17.6559 32.3431 17.5758 32.3557 17.4976C32.3683 17.4194 32.4099 17.3488 32.4723 17.3C32.5346 17.2511 32.613 17.2274 32.692 17.2338L43.272 17.9128C45.978 22.8578 51.688 24.8288 56.702 26.5688C61.585 28.2478 65.784 29.7008 65.784 33.4688C65.784 33.9674 65.6759 34.4601 65.4672 34.9129C65.2585 35.3657 64.9541 35.7679 64.575 36.0918M79.659 42.2918L77.159 40.1158C77.159 40.1158 77.522 39.2288 77.711 38.6038L80.144 41.8368C80.1952 41.9029 80.2198 41.9857 80.2131 42.069C80.2064 42.1522 80.1687 42.23 80.1076 42.287C80.0465 42.344 79.9663 42.3761 79.8827 42.377C79.7992 42.3778 79.7183 42.3475 79.656 42.2918M83.288 39.1148L78.281 36.0618C78.281 36.0618 78.481 34.5968 78.519 33.7928L83.684 38.5838C83.7444 38.6389 83.782 38.7146 83.7895 38.796C83.797 38.8774 83.7738 38.9587 83.7245 39.0239C83.6752 39.0891 83.6033 39.1336 83.5229 39.1485C83.4425 39.1635 83.3595 39.1479 83.29 39.1048M86.229 35.3978L78.576 32.3228C78.5888 31.3881 78.528 30.4539 78.394 29.5288L86.527 34.8288C86.5958 34.8723 86.6457 34.9401 86.6668 35.0188C86.6879 35.0974 86.6787 35.1811 86.6408 35.2532C86.603 35.3253 86.5395 35.3805 86.4628 35.4079C86.3861 35.4352 86.3019 35.4327 86.227 35.4008M90.285 22.3868L79.309 23.4108C79.2891 23.4133 79.2707 23.4226 79.2568 23.4371C79.243 23.4516 79.2346 23.4705 79.2331 23.4905C79.2315 23.5105 79.237 23.5304 79.2484 23.5469C79.2599 23.5633 79.2767 23.5753 79.296 23.5808L89.875 26.2928C89.9511 26.3128 90.0171 26.3604 90.0601 26.4264C90.103 26.4923 90.1199 26.5719 90.1075 26.6497C90.095 26.7274 90.054 26.7977 89.9926 26.8469C89.9311 26.8961 89.8536 26.9206 89.775 26.9158L78.775 26.2098C78.7549 26.2089 78.735 26.2151 78.7189 26.2272C78.7028 26.2394 78.6914 26.2567 78.6867 26.2764C78.682 26.296 78.6842 26.3166 78.693 26.3347C78.7018 26.3529 78.7167 26.3674 78.735 26.3758L88.646 30.7048C88.7202 30.7354 88.78 30.7931 88.8133 30.866C88.8467 30.939 88.8511 31.0219 88.8258 31.0981C88.8004 31.1742 88.7471 31.2379 88.6766 31.2762C88.6061 31.3146 88.5237 31.3248 88.446 31.3048L78.305 29.0178C78.305 29.0178 77.892 24.4768 72.642 20.8558C69.8079 19.0815 66.7756 17.6457 63.607 16.5778C61.5562 15.883 59.5727 15.0034 57.681 13.9498C55.965 12.8618 55.161 11.6918 55.161 10.2728C55.146 9.79535 55.2297 9.31993 55.407 8.87632C55.5842 8.43271 55.8511 8.03048 56.191 7.69481C57.374 6.53681 59.526 6.01581 62.435 6.03981C64.6446 6.14967 66.8197 6.63283 68.868 7.46881L75.468 -0.693188C75.5212 -0.758204 75.5965 -0.80142 75.6795 -0.814636C75.7624 -0.827853 75.8474 -0.81015 75.9182 -0.764887C75.989 -0.719624 76.0407 -0.64995 76.0635 -0.569084C76.0863 -0.488218 76.0787 -0.401786 76.042 -0.326188L71.554 8.69981C71.5464 8.71756 71.545 8.73734 71.55 8.75598C71.555 8.77461 71.5662 8.79102 71.5816 8.80257C71.5971 8.81411 71.616 8.82012 71.6353 8.81962C71.6546 8.81912 71.6732 8.81214 71.688 8.79981L79.658 1.86181C79.7203 1.80615 79.8012 1.77578 79.8847 1.77667C79.9683 1.77756 80.0485 1.80965 80.1096 1.86663C80.1707 1.92361 80.2084 2.00138 80.2151 2.08467C80.2218 2.16796 80.1972 2.25076 80.146 2.31681L73.985 10.5018C73.9735 10.518 73.9679 10.5375 73.969 10.5573C73.9702 10.5771 73.9781 10.5959 73.9914 10.6106C74.0047 10.6253 74.0226 10.635 74.0422 10.6382C74.0617 10.6413 74.0818 10.6376 74.099 10.6278L83.266 5.05381C83.3361 5.00686 83.4215 4.98843 83.5047 5.0023C83.5879 5.01617 83.6627 5.06129 83.7137 5.12844C83.7648 5.19559 83.7883 5.2797 83.7794 5.36359C83.7705 5.44748 83.73 5.52482 83.666 5.57981L76.033 12.6618C76.0186 12.6757 76.0095 12.6941 76.0071 12.714C76.0047 12.7338 76.0093 12.7539 76.02 12.7708C76.0306 12.7877 76.0468 12.8004 76.0658 12.8068C76.0847 12.8132 76.1053 12.8128 76.124 12.8058L86.224 8.74681C86.2989 8.71492 86.3831 8.7124 86.4598 8.73976C86.5364 8.76711 86.6 8.82233 86.6378 8.89444C86.6757 8.96654 86.6849 9.05023 86.6638 9.12887C86.6427 9.2075 86.5928 9.27532 86.524 9.31881L77.624 15.1108C77.607 15.1218 77.5945 15.1384 77.5885 15.1578C77.5826 15.1771 77.5837 15.1979 77.5916 15.2165C77.5994 15.2351 77.6136 15.2504 77.6316 15.2596C77.6496 15.2688 77.6703 15.2713 77.69 15.2668L88.439 12.8438C88.5167 12.8238 88.5991 12.834 88.6696 12.8724C88.7401 12.9108 88.7934 12.9744 88.8188 13.0506C88.8441 13.1267 88.8397 13.2096 88.8063 13.2826C88.773 13.3556 88.7132 13.4132 88.639 13.4438L78.728 17.7728C78.7097 17.7812 78.6948 17.7957 78.686 17.8139C78.6772 17.832 78.675 17.8527 78.6797 17.8723C78.6844 17.8919 78.6958 17.9092 78.7119 17.9214C78.728 17.9335 78.7478 17.9397 78.768 17.9388L89.768 17.2328C89.8466 17.228 89.9241 17.2526 89.9856 17.3018C90.047 17.3509 90.088 17.4213 90.1005 17.499C90.1129 17.5767 90.096 17.6563 90.0531 17.7222C90.0101 17.7882 89.9441 17.8358 89.868 17.8558L79.3 20.5698C79.2807 20.5753 79.2639 20.5873 79.2524 20.6038C79.241 20.6202 79.2355 20.6401 79.2371 20.6601C79.2386 20.6801 79.247 20.699 79.2608 20.7135C79.2747 20.728 79.2931 20.7373 79.313 20.7398L90.287 21.7618C90.3646 21.7694 90.4366 21.8056 90.489 21.8634C90.5413 21.9212 90.5703 21.9963 90.5703 22.0743C90.5703 22.1523 90.5413 22.2275 90.489 22.2852C90.4366 22.343 90.3646 22.3792 90.287 22.3868" fill="white"/>
</g>
</g>
</g>
<defs>
<clipPath id="clip0_9305_5325">
<rect width="126" height="58" fill="white"/>
</clipPath>
<clipPath id="clip1_9305_5325">
<rect width="126.32" height="52.939" fill="white" transform="translate(-0.5 -4.4375)"/>
</clipPath>
</defs>
</svg>
