<svg width="127" height="53" viewBox="0 0 127 53" fill="none" xmlns="http://www.w3.org/2000/svg">
<g clip-path="url(#clip0_9305_5325)">
<g clip-path="url(#clip1_9305_5325)">
<mask id="mask0_9305_5325" style="mask-type:luminance" maskUnits="userSpaceOnUse" x="-1" y="-1" width="127" height="54">
<path d="M125.82 -0.375H-0.5V52.564H125.82V-0.375Z" fill="white"/>
</mask>
<g mask="url(#mask0_9305_5325)">
<path d="M123.621 3.76623C123.362 3.77168 123.105 3.72537 122.864 3.63002C122.624 3.53466 122.404 3.39217 122.22 3.21093C122.035 3.02968 121.888 2.81334 121.788 2.57459C121.688 2.33584 121.637 2.07952 121.637 1.82066C121.637 1.5618 121.69 1.30563 121.79 1.06719C121.891 0.828758 122.038 0.612865 122.224 0.432193C122.409 0.251521 122.629 0.109713 122.87 0.0150976C123.111 -0.0795177 123.368 -0.125033 123.627 -0.118775C123.882 -0.120652 124.136 -0.0715918 124.372 0.0255385C124.608 0.122669 124.823 0.26592 125.003 0.446919C125.183 0.627918 125.326 0.843033 125.422 1.07969C125.518 1.31635 125.566 1.5698 125.563 1.82523C125.565 2.08061 125.516 2.33387 125.419 2.57017C125.323 2.80647 125.179 3.02108 124.999 3.20144C124.818 3.3818 124.603 3.5243 124.366 3.62058C124.13 3.71687 123.876 3.76503 123.621 3.76223M123.616 -0.374775C123.327 -0.376781 123.04 -0.321194 122.773 -0.211257C122.505 -0.10132 122.262 0.0607675 122.058 0.26555C121.854 0.470333 121.693 0.713713 121.584 0.981493C121.475 1.24927 121.42 1.53609 121.423 1.82523C121.422 2.11413 121.478 2.40038 121.588 2.66762C121.698 2.93487 121.859 3.17787 122.063 3.38276C122.474 3.79656 123.033 4.03 123.616 4.03173C124.2 4.03345 124.76 3.80332 125.174 3.39196C125.588 2.9806 125.821 2.4217 125.823 1.83823C125.828 1.54674 125.774 1.25723 125.665 0.986877C125.556 0.716525 125.394 0.470845 125.188 0.264426C124.982 0.0580067 124.737 -0.104943 124.467 -0.214747C124.197 -0.324551 123.907 -0.37897 123.616 -0.374775ZM122.807 0.580225H123.585C123.85 0.543597 124.12 0.606274 124.342 0.756225C124.43 0.82889 124.5 0.920777 124.547 1.0248C124.594 1.12883 124.616 1.24222 124.612 1.35623C124.618 1.5055 124.575 1.65262 124.488 1.77408C124.401 1.89554 124.275 1.98431 124.132 2.02623L124.674 3.01823H124.152L123.668 2.11823H123.26V3.01823H122.807V0.580225ZM123.26 0.974225V1.73823H123.419C123.575 1.73823 123.633 1.73823 123.719 1.73123C123.773 1.73803 123.827 1.73337 123.879 1.71754C123.93 1.70172 123.978 1.6751 124.018 1.63946C124.059 1.60381 124.092 1.55994 124.114 1.51076C124.136 1.46159 124.148 1.40823 124.148 1.35423C124.151 1.28667 124.135 1.2196 124.101 1.16131C124.066 1.10301 124.016 1.05605 123.955 1.02623C123.799 0.973359 123.634 0.9556 123.471 0.974225H123.26Z" fill="black"/>
<path d="M123.113 51.8463C123.113 51.8463 122.248 50.8863 120.813 49.3383C119.781 48.2873 119.182 46.8859 119.137 45.4133V-0.304688H101.837V36.2603C101.624 39.7233 98.237 40.6013 96.373 40.5403C93.69 40.4593 92.129 38.9403 92.129 36.3653V-0.304688H75.278C75.278 -0.304688 68.243 -0.293688 63.4 -0.293688C54.176 -0.293688 45.473 1.12531 42.527 8.80631L40.79 2.00631C40.5383 1.3285 40.0854 0.74386 39.492 0.330792C38.8986 -0.0822765 38.193 -0.304016 37.47 -0.304688H7.353C6.914 -0.304688 6.753 -0.162687 6.974 0.145313C6.974 0.145313 7.791 0.925312 9.279 2.62831C9.88513 3.39346 10.3125 4.28445 10.5298 5.23609C10.7471 6.18772 10.7489 7.1759 10.535 8.12831L-0.5 52.2813H15.559L17.867 42.5873H33.367L35.78 52.2813H56.925C65.604 52.2813 72.663 51.3963 76.142 45.9813C78.742 50.9243 84.347 53.2423 94.233 52.3903C97.675 52.0963 101.044 50.4903 102.489 47.9203L103.173 50.0493C103.453 50.7248 103.93 51.3 104.543 51.6991C105.155 52.0981 105.874 52.3025 106.605 52.2853H122.755C123.194 52.2853 123.336 52.1533 123.113 51.8463ZM39.2 9.11131L42.1 10.8713C42 11.3443 41.89 11.9823 41.821 12.4313L38.807 9.63131C38.7422 9.57668 38.7009 9.49922 38.6917 9.41497C38.6824 9.33072 38.706 9.24615 38.7574 9.17879C38.8088 9.11142 38.8842 9.06642 38.9679 9.05311C39.0516 9.03981 39.1372 9.05921 39.207 9.10731M36.242 12.8013L41.682 14.9873C41.682 15.6363 41.71 16.5113 41.782 17.1723L35.948 13.3723C35.8791 13.329 35.829 13.2613 35.8078 13.1827C35.7867 13.1041 35.796 13.0204 35.8339 12.9483C35.8718 12.8763 35.9356 12.8212 36.0123 12.7941C36.0891 12.7671 36.1733 12.77 36.248 12.8023M34.048 16.9023L42.053 18.7073C42.2672 19.6797 42.5983 20.6225 43.039 21.5153L33.84 17.5083C33.7658 17.4777 33.706 17.4201 33.6727 17.3471C33.6393 17.2741 33.6349 17.1912 33.6602 17.1151C33.6856 17.0389 33.7389 16.9753 33.8094 16.9369C33.8799 16.8985 33.9623 16.8883 34.04 16.9083M20.283 33.0083L25.628 11.4183L30.994 33.0083H20.283ZM64.578 40.1513C63.031 41.5593 60.204 42.2443 57.094 41.9513C55.8455 41.7823 54.631 41.4199 53.494 40.8773L47.015 48.9113C46.9619 48.9769 46.8864 49.0207 46.8031 49.0342C46.7197 49.0476 46.6343 49.0299 46.5632 48.9843C46.4922 48.9387 46.4404 48.8685 46.4178 48.7872C46.3953 48.7058 46.4035 48.619 46.441 48.5433L50.881 39.6153C50.892 39.5929 50.895 39.5674 50.8893 39.5431C50.8836 39.5187 50.8697 39.4971 50.8499 39.4819C50.8301 39.4667 50.8056 39.4589 50.7807 39.4597C50.7557 39.4604 50.7318 39.4699 50.713 39.4863L42.833 46.3443C42.7701 46.3986 42.6894 46.4277 42.6063 46.4261C42.5233 46.4245 42.4438 46.3922 42.383 46.3356C42.3223 46.2789 42.2846 46.2018 42.2772 46.1191C42.2698 46.0364 42.2933 45.9538 42.343 45.8873L48.451 37.7733C48.4679 37.7551 48.4774 37.7313 48.4777 37.7064C48.478 37.6816 48.4691 37.6575 48.4526 37.6389C48.4361 37.6203 48.4133 37.6085 48.3886 37.6058C48.3639 37.6031 48.3391 37.6097 48.319 37.6243L39.192 43.1743C39.1225 43.2174 39.0395 43.233 38.9591 43.218C38.8787 43.2031 38.8068 43.1586 38.7575 43.0934C38.7082 43.0282 38.685 42.9469 38.6925 42.8655C38.7 42.7841 38.7376 42.7084 38.798 42.6533L46.421 35.5783C46.4367 35.5632 46.4466 35.5431 46.4491 35.5215C46.4516 35.4998 46.4465 35.478 46.4347 35.4597C46.4229 35.4414 46.4051 35.4278 46.3844 35.4211C46.3636 35.4145 46.3412 35.4153 46.321 35.4233L36.238 39.4733C36.1633 39.5056 36.0791 39.5086 36.0023 39.4815C35.9256 39.4544 35.8618 39.3993 35.8239 39.3273C35.786 39.2553 35.7767 39.1716 35.7978 39.0929C35.819 39.0143 35.8691 38.9466 35.938 38.9033L44.817 33.1243C44.8352 33.1121 44.8485 33.094 44.8547 33.0731C44.861 33.0522 44.8597 33.0297 44.8512 33.0096C44.8427 32.9895 44.8274 32.9729 44.808 32.9628C44.7887 32.9528 44.7664 32.9497 44.745 32.9543L34.036 35.3663C33.9583 35.3863 33.8759 35.3761 33.8054 35.3377C33.7349 35.2994 33.6816 35.2357 33.6562 35.1596C33.6309 35.0834 33.6353 35.0005 33.6687 34.9275C33.702 34.8546 33.7618 34.7969 33.836 34.7663L43.747 30.4373C43.7653 30.4289 43.7802 30.4144 43.789 30.3962C43.7978 30.3781 43.8 30.3575 43.7953 30.3379C43.7906 30.3182 43.7792 30.3009 43.7631 30.2887C43.747 30.2766 43.7272 30.2704 43.707 30.2713L32.687 30.9783C32.608 30.9847 32.5296 30.9611 32.4673 30.9122C32.4049 30.8633 32.3633 30.7927 32.3507 30.7145C32.3381 30.6363 32.3554 30.5562 32.3992 30.4902C32.443 30.4242 32.51 30.3771 32.587 30.3583L43.181 27.6423C43.2003 27.6368 43.2171 27.6248 43.2286 27.6084C43.24 27.5919 43.2455 27.572 43.2439 27.552C43.2424 27.532 43.234 27.5131 43.2202 27.4986C43.2063 27.4841 43.1879 27.4748 43.168 27.4723L32.179 26.4493C32.1017 26.4417 32.0299 26.4056 31.9777 26.348C31.9255 26.2905 31.8966 26.2155 31.8966 26.1378C31.8966 26.0601 31.9255 25.9852 31.9777 25.9276C32.0299 25.87 32.1017 25.8339 32.179 25.8263L43.2 24.7993C43.2192 24.7975 43.2372 24.789 43.2507 24.7753C43.2643 24.7616 43.2725 24.7435 43.2741 24.7243C43.2756 24.705 43.2704 24.6859 43.2592 24.6702C43.248 24.6544 43.2317 24.6432 43.213 24.6383L32.592 21.9163C32.515 21.8975 32.448 21.8504 32.4042 21.7844C32.3604 21.7184 32.3431 21.6383 32.3557 21.5601C32.3683 21.4819 32.4099 21.4113 32.4723 21.3625C32.5346 21.3136 32.613 21.2899 32.692 21.2963L43.272 21.9753C45.978 26.9203 51.688 28.8913 56.702 30.6313C61.585 32.3103 65.784 33.7633 65.784 37.5313C65.784 38.0299 65.6759 38.5226 65.4672 38.9754C65.2585 39.4282 64.9541 39.8304 64.575 40.1543M79.659 46.3543L77.159 44.1783C77.159 44.1783 77.522 43.2913 77.711 42.6663L80.144 45.8993C80.1952 45.9654 80.2198 46.0482 80.2131 46.1315C80.2064 46.2147 80.1687 46.2925 80.1076 46.3495C80.0465 46.4065 79.9663 46.4386 79.8827 46.4395C79.7992 46.4403 79.7183 46.41 79.656 46.3543M83.288 43.1773L78.281 40.1243C78.281 40.1243 78.481 38.6593 78.519 37.8553L83.684 42.6463C83.7444 42.7014 83.782 42.7771 83.7895 42.8585C83.797 42.9399 83.7738 43.0212 83.7245 43.0864C83.6752 43.1516 83.6033 43.1961 83.5229 43.211C83.4425 43.226 83.3595 43.2104 83.29 43.1673M86.229 39.4603L78.576 36.3853C78.5888 35.4506 78.528 34.5164 78.394 33.5913L86.527 38.8913C86.5958 38.9348 86.6457 39.0026 86.6668 39.0813C86.6879 39.1599 86.6787 39.2436 86.6408 39.3157C86.603 39.3878 86.5395 39.443 86.4628 39.4704C86.3861 39.4977 86.3019 39.4952 86.227 39.4633M90.285 26.4493L79.309 27.4733C79.2891 27.4758 79.2707 27.4851 79.2568 27.4996C79.243 27.5141 79.2346 27.533 79.2331 27.553C79.2315 27.573 79.237 27.5929 79.2484 27.6094C79.2599 27.6258 79.2767 27.6378 79.296 27.6433L89.875 30.3553C89.9511 30.3753 90.0171 30.4229 90.0601 30.4889C90.103 30.5548 90.1199 30.6344 90.1075 30.7122C90.095 30.7899 90.054 30.8602 89.9926 30.9094C89.9311 30.9586 89.8536 30.9831 89.775 30.9783L78.775 30.2723C78.7549 30.2714 78.735 30.2776 78.7189 30.2897C78.7028 30.3019 78.6914 30.3192 78.6867 30.3389C78.682 30.3585 78.6842 30.3791 78.693 30.3972C78.7018 30.4154 78.7167 30.4299 78.735 30.4383L88.646 34.7673C88.7202 34.7979 88.78 34.8556 88.8133 34.9285C88.8467 35.0015 88.8511 35.0844 88.8258 35.1606C88.8004 35.2367 88.7471 35.3004 88.6766 35.3387C88.6061 35.3771 88.5237 35.3873 88.446 35.3673L78.305 33.0803C78.305 33.0803 77.892 28.5393 72.642 24.9183C69.8079 23.144 66.7756 21.7082 63.607 20.6403C61.5562 19.9455 59.5727 19.0659 57.681 18.0123C55.965 16.9243 55.161 15.7543 55.161 14.3353C55.146 13.8578 55.2297 13.3824 55.407 12.9388C55.5842 12.4952 55.8511 12.093 56.191 11.7573C57.374 10.5993 59.526 10.0783 62.435 10.1023C64.6446 10.2122 66.8197 10.6953 68.868 11.5313L75.468 3.36931C75.5212 3.3043 75.5965 3.26108 75.6795 3.24786C75.7624 3.23465 75.8474 3.25235 75.9182 3.29761C75.989 3.34288 76.0407 3.41255 76.0635 3.49342C76.0863 3.57428 76.0787 3.66071 76.042 3.73631L71.554 12.7623C71.5464 12.7801 71.545 12.7998 71.55 12.8185C71.555 12.8371 71.5662 12.8535 71.5816 12.8651C71.5971 12.8766 71.616 12.8826 71.6353 12.8821C71.6546 12.8816 71.6732 12.8746 71.688 12.8623L79.658 5.92431C79.7203 5.86865 79.8012 5.83828 79.8847 5.83917C79.9683 5.84006 80.0485 5.87215 80.1096 5.92913C80.1707 5.98611 80.2084 6.06388 80.2151 6.14717C80.2218 6.23046 80.1972 6.31326 80.146 6.37931L73.985 14.5643C73.9735 14.5805 73.9679 14.6 73.969 14.6198C73.9702 14.6396 73.9781 14.6584 73.9914 14.6731C74.0047 14.6878 74.0226 14.6975 74.0422 14.7007C74.0617 14.7038 74.0818 14.7001 74.099 14.6903L83.266 9.11631C83.3361 9.06936 83.4215 9.05093 83.5047 9.0648C83.5879 9.07867 83.6627 9.12379 83.7137 9.19094C83.7648 9.25809 83.7883 9.3422 83.7794 9.42609C83.7705 9.50998 83.73 9.58732 83.666 9.64231L76.033 16.7243C76.0186 16.7382 76.0095 16.7566 76.0071 16.7765C76.0047 16.7963 76.0093 16.8164 76.02 16.8333C76.0306 16.8502 76.0468 16.8629 76.0658 16.8693C76.0847 16.8757 76.1053 16.8753 76.124 16.8683L86.224 12.8093C86.2989 12.7774 86.3831 12.7749 86.4598 12.8023C86.5364 12.8296 86.6 12.8848 86.6378 12.9569C86.6757 13.029 86.6849 13.1127 86.6638 13.1914C86.6427 13.27 86.5928 13.3378 86.524 13.3813L77.624 19.1733C77.607 19.1843 77.5945 19.2009 77.5885 19.2203C77.5826 19.2396 77.5837 19.2604 77.5916 19.279C77.5994 19.2976 77.6136 19.3129 77.6316 19.3221C77.6496 19.3313 77.6703 19.3338 77.69 19.3293L88.439 16.9063C88.5167 16.8863 88.5991 16.8965 88.6696 16.9349C88.7401 16.9733 88.7934 17.0369 88.8188 17.1131C88.8441 17.1892 88.8397 17.2721 88.8063 17.3451C88.773 17.4181 88.7132 17.4757 88.639 17.5063L78.728 21.8353C78.7097 21.8437 78.6948 21.8582 78.686 21.8764C78.6772 21.8945 78.675 21.9152 78.6797 21.9348C78.6844 21.9544 78.6958 21.9717 78.7119 21.9839C78.728 21.996 78.7478 22.0022 78.768 22.0013L89.768 21.2953C89.8466 21.2905 89.9241 21.3151 89.9856 21.3643C90.047 21.4134 90.088 21.4838 90.1005 21.5615C90.1129 21.6392 90.096 21.7188 90.0531 21.7847C90.0101 21.8507 89.9441 21.8983 89.868 21.9183L79.3 24.6323C79.2807 24.6378 79.2639 24.6498 79.2524 24.6663C79.241 24.6827 79.2355 24.7026 79.2371 24.7226C79.2386 24.7426 79.247 24.7615 79.2608 24.776C79.2747 24.7905 79.2931 24.7998 79.313 24.8023L90.287 25.8243C90.3646 25.8319 90.4366 25.8681 90.489 25.9259C90.5413 25.9837 90.5703 26.0588 90.5703 26.1368C90.5703 26.2148 90.5413 26.29 90.489 26.3477C90.4366 26.4055 90.3646 26.4417 90.287 26.4493" fill="black"/>
</g>
</g>
</g>
<defs>
<clipPath id="clip0_9305_5325">
<rect width="126.32" height="52.939" fill="white"/>
</clipPath>
<clipPath id="clip1_9305_5325">
<rect width="126.32" height="52.939" fill="white" transform="translate(-0.5 -0.375)"/>
</clipPath>
</defs>
</svg>
